<?xml version="1.0" encoding="UTF-8" standalone="no"?>
<!-- Uploaded to: SVG Repo, www.svgrepo.com, Generator: SVG Repo Mixer Tools -->

<svg
   height="800"
   width="800"
   version="1.1"
   id="_x32_"
   viewBox="0 0 512 512"
   xml:space="preserve"
   xmlns="http://www.w3.org/2000/svg"
   xmlns:svg="http://www.w3.org/2000/svg"><defs
   id="defs2" />
<style
   type="text/css"
   id="style1">
	.st0{fill:#000000;}
</style>
<path
   id="path4"
   style="fill:#800000"
   d="M 230.59,2.35 C 103.307,2.35 0,105.56825 0,232.94125 c 0,127.373 103.307,230.59125 230.59,230.59125 28.767,0 56.2715,-5.28275 81.6725,-14.92875 9.565,15.428 21.38925,29.012 34.96625,39.92 16.688,13.413 40.41975,21.12625 65.23875,21.12625 44.104,0 79.82975,-23.64775 93.24375,-61.79875 4.11,-11.57 6.20675,-23.1415 6.28875,-33.6225 V 281.655 c 0,-16.935 -13.2485,-30.8555 -29.9375,-31.8625 v -0.0812 H 477.96 v 0.0812 c -1.179,0.082 -2.35,0.17225 -3.44,0.33625 C 472.841,241.82575 467.97775,234.62 461.09875,230.01 459.59275,103.979 356.957,2.35 230.59,2.35 Z m 0.0412,135.9975 c 52.251,0 94.6025,42.35025 94.6025,94.60125 0,52.251 -42.3515,94.60375 -94.6025,94.60375 -52.251,0 -94.6025,-42.35275 -94.6025,-94.60375 0,-52.252 42.3515,-94.60125 94.6025,-94.60125 z m 0.001,53.02 c -22.969,0 -41.57375,18.61275 -41.57375,41.57375 0,22.977 18.60475,41.57375 41.57375,41.57375 22.97,0 41.57375,-18.59575 41.57375,-41.57375 -10e-4,-22.961 -18.60475,-41.57375 -41.57375,-41.57375 z m 175.7175,48.87 c 7.20594,7e-5 13.0775,5.87104 13.0775,12.995 v 100.62125 h 7.55 3.185 V 348.4 256.4175 c 0,-7.206 5.87225,-12.995 12.99625,-12.995 7.214,0 13.0775,5.789 13.0775,12.995 v 24.06625 73.37 h 10.735 v -72.1975 c 0,-7.206 5.871,-12.995 12.995,-12.995 7.214,0 13.08625,5.789 13.08625,12.995 V 407.8575 h -0.001 v 3.185 3.18625 c -0.09,8.05 -1.678,17.35975 -5.2,27.33375 -12.242,34.711 -44.35775,49.14 -75.38375,49.14 -20.291,0 -40.002,-6.20625 -53.415,-16.94125 -10.98,-8.884 -20.96225,-20.0375 -29.01125,-32.6975 -4.528,-6.796 -8.46725,-14.09175 -11.81625,-21.63375 -12.332,-28.005 -19.2095,-45.6185 -22.9775,-56.5175 -3.774,-10.817 -4.6185,-14.838 -4.7825,-15.935 -0.671,-4.021 0.5075,-8.048 3.2675,-10.98 2.432,-2.767 5.87125,-4.275 9.55625,-4.275 l 1.09875,0.0825 c 1.588,0.164 3.094,0.58975 4.355,1.08875 1.261,0.589 2.3505,1.261 3.3575,2.015 1.933,1.507 3.6035,3.26725 5.6175,5.78125 3.857,5.036 8.8935,13.167 16.2625,28.43 3.112,6.534 6.28875,11.15275 8.97375,14.08375 2.686,2.932 4.7825,4.2755 6.2075,4.7825 0.835,0.418 1.4245,0.4175 1.8425,0.4175 0.499,0 0.84325,5e-4 1.26125,-0.2525 0.418,-0.164 0.92475,-0.5005 1.33375,-1.0075 0.926,-0.918 1.42575,-2.43225 1.34375,-2.93125 V 278.47 c 0,-7.124 5.872,-12.995 13.005,-12.995 7.205,0 13.075,5.871 13.075,12.995 v 75.38375 h 12.325 V 253.2325 c 0,-7.12396 5.78856,-12.99493 13.0025,-12.995 z" />
</svg>
